<svg id="Layer_1" data-name="Layer 1" xmlns="http://www.w3.org/2000/svg" viewBox="0 0 148.76 31.1"><defs><style>.cls-1{fill:#0dbcd4;}</style></defs><title>Whatfix_logo</title><path class="cls-1" d="M126.39,92.21s1,0,1.76,0c2.59,0,3.18.6,3.88,3.13,0.87,3.13,1.64,6.27,2.51,9.4a5,5,0,0,0,.2.84c0.21,0.43.23,1.15,0.77,1.14s0.44-.72.55-1.13c1.09-3.85,2.49-7.6,3.22-11.55A1.1,1.1,0,0,1,140.2,93c2.16-.27,4.4.4,5.09,2.92,0.89,3.25,2,6.44,3.07,9.65a1.93,1.93,0,0,0,.73,1.18,48.74,48.74,0,0,0,3.35-10.62c0.23-1.06.46-2.12,0.65-3.18a1,1,0,0,1,1.19-1c3.52-.15,4.49.91,3.66,4.3a66.42,66.42,0,0,1-6.42,16.9c-1.24,2.21-2.18,2.38-4.11.79a5.59,5.59,0,0,1-1.65-2.17c-0.64-1.54-1.28-3.08-1.91-4.62s-1.2-3-1.89-4.77a49.64,49.64,0,0,1-2.29,6.06c-0.76,1.72-1.48,3.45-2.23,5.16-0.68,1.54-1.42,1.74-2.82.83a9.69,9.69,0,0,1-3.25-3.56,49.48,49.48,0,0,1-4.88-14.92,8.42,8.42,0,0,1-.11-1.48V92.21Z" transform="translate(-126.39 -84.01)"/><path class="cls-1" d="M235,84a5.86,5.86,0,0,1,1.73.48,3.92,3.92,0,0,1,2.29,4.6c-0.18.6-.6,0.36-0.9,0.31a12.78,12.78,0,0,0-3-.16c-2.35.17-3.35,1.23-3.42,3.6-0.06,2.1-.06,2.1,2,2.1,1.13,0,2.26,0,3.38,0a0.77,0.77,0,0,1,.91.87c0.16,1.77-.29,2.62-2,3.12a19.83,19.83,0,0,1-3.42.71,0.88,0.88,0,0,0-.91,1.12c0,4.14,0,8.27,0,12.41,0,1.56,0,1.57-1.62,1.53a7.14,7.14,0,0,1-1.49-.16A2.92,2.92,0,0,1,226.2,112a10.23,10.23,0,0,1-.13-1.49c0-5.6,0-11.2,0-16.8,0-4.87,1.9-7.78,5.7-9.11A7.69,7.69,0,0,1,234,84h1Z" transform="translate(-126.39 -84.01)"/><path class="cls-1" d="M245.78,84a3.2,3.2,0,0,1,.7.41A3.26,3.26,0,0,1,248,88.17,3.3,3.3,0,0,1,245,90.5a3.15,3.15,0,0,1-3.13-2.22,3.29,3.29,0,0,1,1.37-3.8A1.92,1.92,0,0,1,244,84h1.76Z" transform="translate(-126.39 -84.01)"/><path class="cls-1" d="M167.53,94.25a3.5,3.5,0,0,0,.67-0.49c2.89-4,11.41-2.34,12.88,3.64a30,30,0,0,1,.62,6.59c0.07,3.17,0,6.35,0,9.52a1,1,0,0,1-1.1,1.12c-3,.2-4.46-1-4.51-4.11s0-5.93,0-8.9a5.47,5.47,0,0,0-.81-3.1,3.89,3.89,0,0,0-3.79-2,4.07,4.07,0,0,0-3.55,2.78,6.73,6.73,0,0,0-.39,2.46c0,3.89,0,7.77,0,11.66a1,1,0,0,1-1,1.21c-2.52.44-4.21-.69-4.56-3.19a10.73,10.73,0,0,1-.12-1.49c0-8.11,0-16.21,0-24.32,0-1,.28-1.35,1.26-1.12,0.44,0.1.91,0.11,1.37,0.17a3.11,3.11,0,0,1,3.06,3.43c0,2,0,3.92,0,6.13" transform="translate(-126.39 -84.01)"/><path class="cls-1" d="M263.18,107a15.07,15.07,0,0,0-4.09,6.79,0.86,0.86,0,0,1-.36.74,5.74,5.74,0,0,1-4-.57c-1-.82-0.79-1.85-0.45-2.87a13.6,13.6,0,0,1,2.43-4.06c0.94-1.17,1.87-2.35,2.88-3.46a1,1,0,0,0,.13-1.51c-1-1.43-2-2.88-3-4.32a21.89,21.89,0,0,1-2.56-4.57c-0.26-.66-0.17-0.94.63-1,2.69-.32,4.83.4,6.33,2.79,0.86,1.37,1.94,2.61,2.91,3.92,0.27,0.38.46,0.68,0.92,0.18,1.53-1.66,3.19-3.31,3.76-5.54,0.43-1.68,1.55-1.28,2.59-1.34a1.93,1.93,0,0,1,2,1.65,3.54,3.54,0,0,1-.72,3.06c-1.38,1.93-2.72,3.91-4.23,5.74a1.66,1.66,0,0,0,0,2.53c0.86,1,1.58,2.15,2.34,3.25a10.83,10.83,0,0,0,3.56,3.46c1.1,0.62,1.12,1.34.19,2.17a3.67,3.67,0,0,1-4.19.66,11.56,11.56,0,0,1-4.82-4.25c-0.76-1.1-1.48-2.22-2.29-3.45" transform="translate(-126.39 -84.01)"/><path class="cls-1" d="M209.42,99.81c0-2.46,0-4.93,0-7.39s1.88-4.93,4-5.3c1.29-.23,1.53,0,1.53,1.27,0,0.88,0,1.76,0,2.63a0.77,0.77,0,0,0,1,1c1.83-.06,3.68,0,5.51,0a1.05,1.05,0,0,1,1.27,1.1c0.35,2.37-.72,3.77-3.15,3.95-1.2.09-2.42,0.1-3.63,0.1a0.67,0.67,0,0,0-.81.8c0,3.21,0,6.43.09,9.64a2.27,2.27,0,0,0,2.4,2.23,16,16,0,0,0,3.87-.21c1-.2,1.3.18,1.3,1.16,0,2.46-1.17,3.81-3.61,4.08a12.55,12.55,0,0,1-4-.14c-3.6-.77-5.64-3.42-5.71-7.47,0-2.46,0-4.93,0-7.39" transform="translate(-126.39 -84.01)"/><path class="cls-1" d="M242.27,101.52c0-2.59,0-5.18,0-7.76a1,1,0,0,1,1.13-1.16c2.69-.11,4.14,1.13,4.23,3.92,0.1,3.09.06,6.18,0.08,9.26,0,0.54,0,1.09,0,1.63,0.13,2,.54,2.38,2.51,2.76,0.63,0.12,1.69-.5,1.83.86,0.2,1.9-.28,3.08-1.56,3.59a6.13,6.13,0,0,1-8.22-5.35c-0.07-2.59,0-5.17,0-7.76" transform="translate(-126.39 -84.01)"/><path class="cls-1" d="M204.11,97.42a6.12,6.12,0,0,0-4-4.77,14.52,14.52,0,0,0-9.58-.12,4.8,4.8,0,0,0-3.1,6.09c3.13-1.94,4.87-2.39,8.22-2.15,2.28,0.16,3.44,1.31,3.54,3.41,0,0.74-.11,1-0.94,1a28.16,28.16,0,0,0-7.78,1.06,5.57,5.57,0,0,0-4.1,4.15,6.6,6.6,0,0,0,4,8,12.8,12.8,0,0,0,9.53.27,6.33,6.33,0,0,0,4.59-5.56,36.59,36.59,0,0,0-.38-11.34M193.31,110a2.52,2.52,0,0,1-1.44-2.89,2.2,2.2,0,0,1,2.16-1.88c1.24-.14,2.47-0.32,3.71-0.44,1.57-.15,1.61-0.1,1.6,1.45,0,3.64-2.85,5.4-6,3.76" transform="translate(-126.39 -84.01)"/></svg>